<svg id="Layer_1" data-name="Layer 1" xmlns="http://www.w3.org/2000/svg" viewBox="0 0 257.72 143.48"><defs><style>.cls-1{fill:#ebdfcc;}.cls-2{fill:#697565;}</style></defs><circle class="cls-1" cx="32.34" cy="110.9" r="32.34"/><path class="cls-2" d="M372.41,364l42.24,85.44s5.76,21.6-11.52,36c0,0-27.84,16.32-46.56-7.68l-44.16-90.87a37.2,37.2,0,0,1,3-21.94c1.5-3.12,4.87-10.14,12.84-14.39a29.37,29.37,0,0,1,17.3-2.95C361.07,349.16,370.41,361.25,372.41,364Z" transform="translate(-157.85 -347.34)"/><path class="cls-2" d="M318.25,447h0l0,0a31.5,31.5,0,0,0-2.54-5.3,424.08,424.08,0,0,0-38-63.9c-11-15-23.42-29.47-40.15-30.24-.68,0-1.24,0-1.62,0h-.17c-.54,0-1.08,0-1.62,0a50.45,50.45,0,0,0-15.84,3.87c-24.46,10.67-35.73,47.33-36.94,51.4A74.54,74.54,0,0,1,201.05,405a84.9,84.9,0,0,1,14,5.06c11.88,5.68,29.72,26.42,42.1,58.21A32.34,32.34,0,1,0,318.25,447Z" transform="translate(-157.85 -347.34)"/></svg>