<svg id="Layer_1" data-name="Layer 1" xmlns="http://www.w3.org/2000/svg" viewBox="0 0 257.72 143.48"><defs><style>.cls-1{fill:#697565;}.cls-2{fill:#ebdfcc;}</style></defs><circle class="cls-1" cx="32.34" cy="110.9" r="32.34"/><path class="cls-2" d="M372.41,154.92l42.24,85.44s5.76,21.6-11.52,36c0,0-27.84,16.32-46.56-7.68l-44.16-90.86a37.22,37.22,0,0,1,3-21.95c1.5-3.12,4.87-10.14,12.84-14.39a29.45,29.45,0,0,1,17.3-2.95C361.07,140.11,370.41,152.21,372.41,154.92Z" transform="translate(-157.85 -138.3)"/><path class="cls-2" d="M318.25,238h0l0,0a31.87,31.87,0,0,0-2.54-5.3,424.58,424.58,0,0,0-38-63.9c-11-15-23.42-29.47-40.15-30.24-.68,0-1.24,0-1.62,0h-.17c-.54,0-1.08,0-1.62,0a50.45,50.45,0,0,0-15.84,3.87c-24.46,10.67-35.73,47.34-36.94,51.4a74.19,74.19,0,0,1,19.66,2.2,85.4,85.4,0,0,1,14,5.05c11.88,5.68,29.72,26.42,42.1,58.21A32.33,32.33,0,1,0,318.25,238Z" transform="translate(-157.85 -138.3)"/></svg>